<svg width="18" height="14" viewBox="0 0 18 14" fill="none" xmlns="http://www.w3.org/2000/svg">
<g id="Group 33287">
<path id="Vector" d="M8.61521 4.57715C7.69978 4.59652 6.82836 4.97377 6.18779 5.62804C5.54722 6.28231 5.18848 7.16151 5.18848 8.07715C5.18848 8.99279 5.54722 9.87199 6.18779 10.5263C6.82836 11.1805 7.69978 11.5578 8.61521 11.5771C9.54341 11.5769 10.4335 11.2081 11.0899 10.5518C11.7462 9.89546 12.115 9.00534 12.1152 8.07715C12.115 7.14895 11.7462 6.25884 11.0899 5.6025C10.4335 4.94617 9.54341 4.57736 8.61521 4.57715ZM8.61521 10.1087C8.35017 10.1088 8.08771 10.0567 7.84281 9.95537C7.59791 9.85404 7.37536 9.70546 7.18788 9.51813C7.00039 9.33079 6.85164 9.10836 6.75012 8.86353C6.6486 8.61871 6.5963 8.35628 6.59619 8.09125C6.59609 7.82621 6.64819 7.56374 6.74952 7.31884C6.85085 7.07394 6.99943 6.85139 7.18677 6.66391C7.37411 6.47642 7.59654 6.32768 7.84136 6.22615C8.08619 6.12463 8.34861 6.07233 8.61365 6.07223C9.14892 6.07202 9.66235 6.28445 10.041 6.6628C10.4196 7.04115 10.6325 7.55441 10.6327 8.08968C10.6329 8.62495 10.4204 9.13838 10.0421 9.51702C9.66375 9.89566 9.15048 10.1085 8.61521 10.1087Z" fill="#6EB544"/>
<path id="Vector_2" d="M16.1529 2.15373H12.3843L10.7694 0H6.46196L4.84706 2.15373H1.07686C0.484001 2.15373 0 2.63773 0 3.23137V12.9231C0 13.5152 0.484001 14 1.07686 14H16.1529C16.7458 14 17.2298 13.5168 17.2298 12.9231V3.23137C17.2298 2.63773 16.7458 2.15373 16.1529 2.15373ZM8.6149 12.8558C7.98213 12.8638 7.35405 12.7461 6.76711 12.5095C6.18018 12.273 5.64607 11.9222 5.19577 11.4775C4.74548 11.0329 4.38796 10.5032 4.14397 9.91934C3.89997 9.33544 3.77436 8.7089 3.77441 8.07607C3.77446 7.44325 3.90018 6.81673 4.14427 6.23287C4.38836 5.64901 4.74596 5.11943 5.19633 4.67487C5.6467 4.2303 6.18087 3.87959 6.76784 3.64309C7.35481 3.40659 7.98291 3.28901 8.61569 3.29716C9.87264 3.31335 11.0726 3.82407 11.9557 4.71868C12.8388 5.6133 13.3339 6.8198 13.3338 8.07686C13.3337 9.33392 12.8384 10.5403 11.9552 11.4348C11.0719 12.3293 9.87186 12.8398 8.6149 12.8558ZM16.1529 4.71157H13.9992V3.63471H16.1529V4.71157Z" fill="#6EB544"/>
</g>
</svg>
