<svg width="11" height="24" viewBox="0 0 11 24" fill="none" xmlns="http://www.w3.org/2000/svg">
<g id="Group 33288">
<path id="Vector" d="M5.09721 1.73738C5.60645 0.92021 6.76086 0.284183 7.71644 0.441177C8.78767 0.616285 9.36183 1.38113 9.514 2.35127C9.56877 2.7035 9.55863 3.05372 9.49776 3.30128C9.48965 3.33148 9.43081 3.54684 9.42676 3.61527C9.38618 3.87693 9.89745 4.13657 9.95628 4.4244C10.0009 4.64177 9.54443 4.78065 9.50791 4.81889C9.32937 5.01413 9.61138 5.942 8.35959 6.03459C7.87875 6.07082 7.97208 6.04063 7.83006 6.09497C7.60892 6.17951 7.6292 6.7632 7.6292 6.7632C7.6292 6.7632 7.50545 7.72529 6.67768 7.46968C5.73224 7.17984 5.69572 6.51564 5.69572 6.51564C5.69572 6.51564 6.04671 5.58977 5.48269 4.62768C5.03432 3.85881 4.76854 2.26271 5.09721 1.73738Z" fill="#F9DDBD"/>
<path id="Vector_2" d="M9.49106 5.42421C9.31524 5.4367 9.1435 5.38673 8.99425 5.25182C8.83273 5.10442 8.94314 4.94202 9.12919 5.03696C9.24163 5.09442 9.39906 5.1244 9.54218 5.09192L9.49106 5.42421Z" fill="#444444"/>
<path id="Vector_3" d="M8.65619 4.18351C8.53115 4.17956 8.43472 4.02026 8.44081 3.82772C8.4469 3.63517 8.55321 3.48229 8.67825 3.48625C8.8033 3.4902 8.89973 3.6495 8.89363 3.84204C8.88754 4.03459 8.78124 4.18747 8.65619 4.18351Z" fill="#312D2D"/>
<path id="Vector_4" d="M8.86555 3.32188C9.11916 3.38725 9.16897 3.20121 9.0784 3.06043C9.01273 2.95484 8.85649 2.87439 8.56891 2.95484C8.29718 3.03026 8.19302 3.21378 8.12283 3.3244C8.05263 3.43501 8.06848 3.5406 8.13188 3.54815C8.21793 3.55317 8.55306 3.24144 8.86555 3.32188Z" fill="#454140"/>
<path id="Vector_5" d="M1.60539 20.9517L4.41226 17.7379C4.58781 17.5376 4.69155 17.2853 4.70751 17.019L4.98281 12.5216L8.07495 12.864L7.10143 17.5036C6.94383 18.2545 6.5229 18.9233 5.91644 19.3899L2.6268 21.9129L1.60539 20.9517Z" fill="#616161"/>
<path id="Vector_6" d="M4.91798 11.6866L8.4436 12.0125L9.35207 16.1395C9.51853 16.9005 9.57669 17.6838 9.52254 18.4611L9.19565 23.1649H7.858L7.26639 18.0988C7.26639 18.0988 6.26165 15.4028 6.22956 15.3866C5.41333 14.9959 4.70741 14.3907 4.74351 13.3969C4.76155 12.8262 4.85381 12.2513 4.91798 11.6866Z" fill="#7C7C7C"/>
<path id="Vector_7" d="M5.59235 13.9827H8.05979C8.53047 13.9827 8.91406 13.5349 8.91406 12.9844L8.46826 8.363C8.37703 7.51882 7.94367 6.70133 7.50824 6.39324C7.09977 6.10363 6.50883 6.05638 6.50883 6.05638C6.19159 6.03174 5.72091 6.10773 5.42025 6.54318C5.23986 6.80403 5.10509 7.31342 5.07606 7.75091L4.74015 12.9844C4.74015 13.537 5.12167 13.9827 5.59235 13.9827Z" fill="url(#paint0_linear_373_2506)"/>
<path id="Vector_8" d="M5.17834 11.3288L5.64643 8.55591L7.09647 8.78247L6.64918 11.427L7.39188 13.4C7.43973 13.4902 8.1117 13.7829 8.15331 13.803C8.2823 13.8631 8.37175 13.9814 8.43833 14.216C8.47785 14.3603 8.57771 14.7734 8.36759 14.8455C8.43833 15.036 8.39256 15.2746 8.33847 15.3308C8.21364 15.4611 8.06177 15.4029 8.06177 15.4029C8.06177 15.4029 8.04097 15.5693 7.90366 15.6155C7.73307 15.6736 7.61449 15.5834 7.61449 15.5834C7.55416 15.6275 7.48134 15.6516 7.40437 15.6516C7.31283 15.6516 7.23169 15.6175 7.16928 15.5734C7.12975 15.5894 7.02157 15.6516 6.88427 15.5573C6.79689 15.4972 6.52228 15.1503 6.43698 14.9278C6.37873 14.7754 6.38705 14.0095 6.31424 13.8751C6.24142 13.7408 5.24491 11.8301 5.24491 11.8301H5.24699C5.15753 11.6717 5.13673 11.4932 5.17834 11.3288Z" fill="url(#paint1_linear_373_2506)"/>
<path id="Vector_9" d="M6.76059 14.988C6.81038 14.862 6.84284 14.8536 6.93375 14.8767C7.05713 14.9082 7.19134 14.904 7.2671 14.7569C7.28441 14.7212 7.31039 14.7086 7.34935 14.7212C7.48139 14.7632 7.64589 14.7653 7.70217 14.572C7.72382 14.5006 7.75412 14.4922 7.83421 14.4922C7.86019 14.4922 7.93594 14.5237 8.01387 14.4439C8.10045 14.3535 7.98356 14.1729 8.09396 14.1561C8.12643 14.1519 8.28227 14.1687 8.32989 14.0069C8.3602 13.9018 8.23465 13.7758 8.23249 13.7737C8.31907 13.8472 8.38617 13.9628 8.43596 14.1477C8.47708 14.2989 8.58098 14.7317 8.36236 14.8074C8.43596 15.0069 8.38834 15.257 8.33206 15.3158C8.20219 15.4523 8.04417 15.3914 8.04417 15.3914C8.04417 15.3914 8.02253 15.5658 7.87967 15.6141C7.70217 15.6751 7.57879 15.5805 7.57879 15.5805C7.51602 15.6267 7.44026 15.6519 7.36017 15.6519C7.26493 15.6519 7.18051 15.6162 7.11558 15.57C7.07445 15.5868 6.96189 15.6519 6.81903 15.5532C6.74327 15.5007 6.52898 15.2338 6.40993 15.0111C6.516 15.0931 6.72379 15.0826 6.76059 14.988Z" fill="url(#paint2_linear_373_2506)"/>
<path id="Vector_10" d="M7.68217 23.9998C7.55617 23.9998 7.45218 23.8936 7.45218 23.7604V23.1775C7.45218 22.7819 7.83816 22.3302 7.83816 22.3302H9.23409L10.49 22.7611C10.794 22.886 10.996 23.19 10.998 23.5293L11 23.7916C11 23.9061 10.91 23.9998 10.8 23.9998H7.68217Z" fill="#4568AD"/>
<path id="Vector_11" d="M0.635538 21.492C0.546639 21.4006 0.546639 21.2544 0.635538 21.163L1.02669 20.7609C1.29339 20.4868 1.86432 20.4523 1.86432 20.4523L2.83825 21.4535L3.42499 22.6536C3.55339 22.9583 3.49018 23.3116 3.26299 23.5492L3.08717 23.732C3.01012 23.8112 2.88369 23.8112 2.80664 23.732L0.635538 21.492Z" fill="#325599"/>
<path id="Vector_12" d="M6.83479 15.0259C6.80979 15.1242 6.85622 15.1985 6.92052 15.2707C6.99196 15.3389 7.07768 15.4011 7.23842 15.4433C7.26342 15.3449 7.21699 15.2707 7.15269 15.1985C7.08483 15.1302 6.99553 15.068 6.83479 15.0259Z" fill="#EDBD82"/>
<path id="Vector_13" d="M7.25106 14.8173C7.22817 14.9421 7.27394 15.053 7.33934 15.158C7.41127 15.2611 7.49629 15.3621 7.6565 15.4433C7.67939 15.3165 7.63362 15.2076 7.56822 15.1026C7.49629 15.0015 7.408 14.9005 7.25106 14.8173Z" fill="#EDBD82"/>
<path id="Vector_14" d="M7.87648 14.6086C7.85343 14.7292 7.87264 14.8381 7.90145 14.9431C7.93411 15.0461 7.97829 15.1472 8.06472 15.2347C8.08777 15.1142 8.06857 15.0053 8.03975 14.9003C8.00518 14.7972 7.961 14.6961 7.87648 14.6086Z" fill="#EDBD82"/>
<path id="Vector_15" d="M7.86856 13.9829C7.92219 14.0388 7.97409 14.0968 8.01734 14.159C8.06406 14.2211 8.08655 14.2771 8.10212 14.3578C8.14191 14.5111 8.1817 14.6706 8.27512 14.8177C8.3028 14.6375 8.27512 14.4676 8.21803 14.3061C8.18862 14.2273 8.13153 14.1362 8.06925 14.0906C8.00523 14.0388 7.93776 14.0036 7.86856 13.9829Z" fill="#EDBD82"/>
<g id="Group">
<path id="Vector_16" d="M7.312 9.77069L5.12695 9.37377L5.47976 7.43127C5.5058 7.28779 5.55984 7.15083 5.63882 7.02824C5.71779 6.90565 5.82015 6.79981 5.94003 6.71679C6.05992 6.63376 6.19499 6.57517 6.33753 6.54435C6.48006 6.51354 6.62728 6.51111 6.77075 6.5372C6.91424 6.56324 7.05119 6.61729 7.17379 6.69626C7.29638 6.77523 7.40221 6.87759 7.48524 6.99747C7.56827 7.11736 7.62686 7.25243 7.65767 7.39497C7.68849 7.53751 7.69092 7.68472 7.66482 7.82819L7.312 9.77069Z" fill="#ED6D23"/>
</g>
<g id="Group_2">
<path id="Vector_17" d="M4.45362 1.85873C4.71823 1.19519 5.25548 0.994726 5.43188 0.946615C5.51407 0.706058 5.93104 -0.206054 7.43653 0.0425219C7.80337 0.102661 8.072 0.277065 8.30854 0.431422C8.40878 0.497575 8.505 0.561724 8.59521 0.603821C8.66938 0.6379 8.79768 0.669975 8.90392 0.635896C9.14648 0.55571 9.07031 0.186856 9.07031 0.186856C9.07031 0.186856 9.96037 0.363265 9.57748 1.22326C9.87617 1.35556 10.0145 1.6723 10.0666 1.97099C10.1388 2.37793 9.94032 2.76482 9.54942 2.93923C9.54942 2.93923 9.6276 2.28572 8.68341 2.3238C8.39073 2.33583 8.08402 2.38194 7.8134 2.27168C7.70916 2.22959 7.61293 2.16343 7.5127 2.11532H7.47662C7.11979 2.30576 7.58888 3.14972 7.19196 3.64286C7.11378 3.74108 7.04762 3.705 7.04762 3.705L6.88926 3.47046C6.76898 3.31009 6.65872 3.16976 6.50838 3.20384C6.06335 3.30207 6.14353 4.09591 6.67075 4.27031C6.72287 4.28835 6.60059 5.1724 5.50806 5.1724C4.94275 5.1724 4.74429 4.70331 4.74429 4.70331C4.74429 4.70331 4.98485 4.76345 5.03697 4.55898C5.06504 4.45273 4.96681 4.3084 4.7904 4.15204C4.28122 3.69899 4.46565 3.17778 4.53982 3.0154C4.45963 2.86305 4.24714 2.37793 4.45362 1.85873Z" fill="#312D2D"/>
<path id="Vector_18" d="M4.54178 3.0135C4.53176 2.99546 4.70015 3.41644 5.42182 3.34627C5.7185 3.34627 6.13146 4.06193 5.69846 4.53503C5.31356 4.95199 4.74625 4.70141 4.74625 4.70141C4.74625 4.70141 4.82443 4.72346 4.9387 4.68537C5.01287 4.65931 5.03893 4.56309 5.03893 4.55708C5.06699 4.45083 4.96877 4.3065 4.79236 4.15013C4.28318 3.69508 4.46761 3.17588 4.54178 3.0135Z" fill="url(#paint3_radial_373_2506)"/>
<path id="Vector_19" d="M4.45701 1.85901C4.59533 1.5102 4.84992 1.21552 5.1867 1.04513C5.23481 1.02107 5.35509 0.962937 5.43728 0.946899C5.39719 1.10126 5.4012 1.26764 5.46735 1.43804C5.46936 1.44405 5.54553 1.69864 5.76404 1.90111C5.60567 2.12162 5.52549 2.38824 5.44931 2.65084C5.38316 2.87937 5.31901 3.13196 5.42124 3.34645C5.28292 3.33844 5.06241 3.37652 4.81985 3.26827C4.58731 3.16403 4.46503 2.89541 4.4089 2.65485C4.34676 2.39225 4.35678 2.1136 4.45701 1.85901Z" fill="url(#paint4_radial_373_2506)"/>
<path id="Vector_20" d="M5.46866 1.43988C5.29425 0.992846 5.54083 0.57989 5.91168 0.305255C6.3487 -0.0174926 6.92202 -0.0415483 7.43922 0.0426466C7.80607 0.102786 8.07469 0.277189 8.31124 0.431547C8.41348 0.4977 8.5097 0.559844 8.59991 0.603946C8.67408 0.638025 8.80238 0.670099 8.90862 0.63602C9.15118 0.555834 9.07501 0.186981 9.07501 0.186981C9.07501 0.186981 9.96507 0.363389 9.58218 1.22338C9.88087 1.35569 10.0192 1.67242 10.0713 1.97111C10.1435 2.37805 9.94502 2.76495 9.55412 2.93935C9.55412 2.93935 9.6323 2.28584 8.68811 2.32393C8.39543 2.33596 8.08872 2.38206 7.8181 2.27181C7.57754 2.17558 7.49735 2.04528 7.22673 2.05931C6.93606 2.07535 6.54916 2.18561 6.25047 2.1395C5.64707 2.04729 5.47066 1.4479 5.46866 1.43988Z" fill="url(#paint5_radial_373_2506)"/>
<path id="Vector_21" d="M5.69668 4.53518C5.89113 4.3287 5.94325 3.98791 6.24796 3.8075C6.30409 4.00595 6.44642 4.19239 6.67294 4.26856C6.72506 4.2866 6.60278 5.17065 5.51025 5.17065C4.94494 5.17065 4.74648 4.70156 4.74648 4.70156C4.74648 4.70156 5.30578 4.95014 5.69668 4.53518Z" fill="url(#paint6_radial_373_2506)"/>
</g>
</g>
<defs>
<linearGradient id="paint0_linear_373_2506" x1="8.2916" y1="9.22772" x2="4.73697" y2="11.724" gradientUnits="userSpaceOnUse">
<stop stop-color="#F78C1F"/>
<stop offset="0.482" stop-color="#F47F12"/>
<stop offset="1" stop-color="#EF6C00"/>
</linearGradient>
<linearGradient id="paint1_linear_373_2506" x1="6.75965" y1="13.3524" x2="7.37807" y2="9.59053" gradientUnits="userSpaceOnUse">
<stop offset="0.461" stop-color="#F9DDBD"/>
<stop offset="1" stop-color="#FFD29C"/>
</linearGradient>
<linearGradient id="paint2_linear_373_2506" x1="7.96105" y1="15.9253" x2="7.4994" y2="14.6864" gradientUnits="userSpaceOnUse">
<stop offset="0.456" stop-color="#F9DDBD"/>
<stop offset="1" stop-color="#FFD29C"/>
</linearGradient>
<radialGradient id="paint3_radial_373_2506" cx="0" cy="0" r="1" gradientUnits="userSpaceOnUse" gradientTransform="translate(5.9064 4.05692) rotate(159.738) scale(1.42767 2.05609)">
<stop offset="0.45" stop-color="#454140" stop-opacity="0"/>
<stop offset="1" stop-color="#454140"/>
</radialGradient>
<radialGradient id="paint4_radial_373_2506" cx="0" cy="0" r="1" gradientUnits="userSpaceOnUse" gradientTransform="translate(5.73699 2.6179) rotate(-172.276) scale(1.44711 1.82609)">
<stop offset="0.45" stop-color="#454140" stop-opacity="0"/>
<stop offset="1" stop-color="#454140"/>
</radialGradient>
<radialGradient id="paint5_radial_373_2506" cx="0" cy="0" r="1" gradientUnits="userSpaceOnUse" gradientTransform="translate(7.34974 2.11847) rotate(-171.176) scale(2.9786 2.23892)">
<stop offset="0.45" stop-color="#454140" stop-opacity="0"/>
<stop offset="1" stop-color="#454140"/>
</radialGradient>
<radialGradient id="paint6_radial_373_2506" cx="0" cy="0" r="1" gradientUnits="userSpaceOnUse" gradientTransform="translate(5.57504 4.23195) rotate(165.741) scale(1.60352 1.03089)">
<stop offset="0.45" stop-color="#454140" stop-opacity="0"/>
<stop offset="1" stop-color="#454140"/>
</radialGradient>
</defs>
</svg>
