<svg width="19" height="14" viewBox="0 0 19 14" fill="none" xmlns="http://www.w3.org/2000/svg">
<path id="Vector" d="M9.78331 14V10H12.3922L9.13109 6L5.86999 10H8.47887V14H5.21776V13.9667C5.10819 13.9733 5.00384 14 4.89165 14C3.59431 14 2.3501 13.4732 1.43273 12.5355C0.515369 11.5979 0 10.3261 0 9C0 6.43467 1.89796 4.344 4.33335 4.05733C4.54688 2.91639 5.14269 1.88716 6.01831 1.14667C6.89393 0.406173 7.99463 0.000704019 9.13109 0C10.2677 0.000650218 11.3686 0.406071 12.2444 1.14655C13.1203 1.88702 13.7163 2.91628 13.9301 4.05733C16.3655 4.344 18.2609 6.43467 18.2609 9C18.2609 10.3261 17.7455 11.5979 16.8281 12.5355C15.9108 13.4732 14.6666 14 13.3692 14C13.2596 14 13.154 13.9733 13.0431 13.9667V14H9.78331Z" fill="#6EB544"/>
</svg>
